<?xml version="1.0" standalone="no"?>
<!DOCTYPE svg PUBLIC "-//W3C//DTD SVG 20010904//EN"
 "http://www.w3.org/TR/2001/REC-SVG-20010904/DTD/svg10.dtd">
<svg version="1.0" xmlns="http://www.w3.org/2000/svg"
 width="512.000000pt" height="512.000000pt" viewBox="0 0 512.000000 512.000000"
 preserveAspectRatio="xMidYMid meet">
<metadata>
Created by potrace 1.14, written by Peter Selinger 2001-2017
</metadata>
<g transform="translate(0.000000,512.000000) scale(0.100000,-0.100000)"
fill="#000000" stroke="none">
<path d="M2408 4926 c-1 -2 -49 -6 -105 -10 -294 -17 -581 -127 -827 -316
-137 -106 -284 -277 -380 -443 -31 -54 -56 -100 -56 -102 0 -2 -11 -28 -24
-57 -49 -108 -98 -302 -112 -443 -8 -91 -8 -1398 0 -1490 19 -195 55 -346 129
-535 72 -185 115 -246 166 -235 22 5 29 0 44 -28 10 -18 39 -61 66 -96 46 -62
47 -65 34 -93 -8 -15 -12 -36 -9 -45 7 -21 145 -165 226 -236 72 -64 195 -155
295 -219 94 -61 351 -193 450 -232 39 -15 84 -34 100 -41 59 -27 302 -105 346
-111 91 -12 193 41 234 122 30 59 44 73 81 80 29 5 53 -4 157 -57 113 -59 127
-63 187 -63 110 0 176 48 230 169 116 257 114 255 249 220 126 -33 194 -20
264 50 79 79 86 175 23 310 -64 137 -84 186 -117 290 -51 157 -100 382 -114
525 -4 36 -9 74 -11 85 -2 11 -7 103 -10 205 -6 194 -14 227 -55 237 -16 5
-19 15 -19 74 0 64 2 69 24 75 35 8 46 44 46 154 0 113 -9 146 -45 160 -24 9
-25 14 -25 85 0 48 4 74 10 70 5 -3 22 6 36 20 l26 26 -5 277 c-3 152 -8 293
-11 312 -3 19 -8 49 -11 65 -10 65 -48 195 -82 280 -179 454 -567 793 -1048
914 -95 24 -132 29 -245 37 -47 3 -90 7 -97 9 -6 2 -13 2 -15 1z"/>
</g>
</svg>
