<?xml version="1.0" encoding="UTF-8"?>
<svg version="1.1" viewBox="0 0 1600 1600" width="1280" height="1280" xmlns="http://www.w3.org/2000/svg">
<path transform="translate(435 134)" d="m0 0c1.76-0.00165 3.52-0.00374 5.28-0.00622 4.84-0.00556 9.68-0.0049 14.5-0.00322 5.26 7.32e-4 10.5-0.00429 15.8-0.00858 10.4-0.00758 20.9-0.00977 31.3-0.0103 12.5-9.14e-4 25-0.00758 37.5-0.0143 29.5-0.0157 59-0.0217 88.6-0.0264 15-0.00238 30-0.00609 45.1-0.01 48.2-0.0127 96.4-0.0234 145-0.0268 2.3-1.62e-4 4.61-3.28e-4 6.91-4.94e-4 4.62-3.34e-4 9.24-6.64e-4 13.9-9.95e-4 5.41-3.87e-4 10.8-7.77e-4 16.2-0.00117 1.55-1.12e-4 3.1-2.24e-4 4.64-3.34e-4 49.7-0.00355 99.4-0.0186 149-0.0419 35.7-0.0167 71.4-0.0322 107-0.0367 0.735-9.35e-5 1.47-1.87e-4 2.23-2.83e-4 16.1-0.00202 32.3-0.00318 48.4-0.00353 5.77-1.36e-4 11.5-3.45e-4 17.3-5.93e-4 1.44-6.16e-5 2.87-1.2e-4 4.31-1.75e-4 22.9-9.19e-4 45.7-0.0109 68.6-0.0255 23.7-0.015 47.4-0.0192 71-0.0109 13.6 0.00445 27.3 6.1e-4 40.9-0.0152 9.12-0.00977 18.2-0.00856 27.4 0.00144 5.19 0.00538 10.4 0.00614 15.6-0.00651 48.3-0.11 48.3-0.11 68.5 6.13 0.857 0.256 1.71 0.512 2.6 0.776 8.15 2.52 15.9 5.71 23.5 9.47 0.631 0.307 1.26 0.613 1.91 0.929 20.6 10.1 40.3 25.3 54.4 43.6 0.466 0.601 0.932 1.2 1.41 1.82 14.7 19.2 24.6 39.7 30.9 63.1 0.194 0.718 0.389 1.44 0.589 2.18 0.393 1.52 0.766 3.04 1.12 4.57 0.45 1.94 0.927 3.88 1.43 5.81 3.11 13.7 2.67 27.5 2.63 41.5-0.00676 3.89 0.00398 7.78 0.0124 11.7 0.0123 6.81 0.0136 13.6 0.00745 20.4-0.00911 10.1-0.00104 20.2 0.0103 30.4 0.0196 18.1 0.022 36.2 0.0168 54.2-0.00456 15.8-0.00395 31.7 0.00184 47.5 7.57e-4 2.12 0.00151 4.25 0.00227 6.37 0.00115 3.2 0.0023 6.4 0.00346 9.61 0.0107 29.8 0.0154 59.5 0.00753 89.3-4.46e-4 1.68-4.46e-4 1.68-9.01e-4 3.4-0.00245 9.11-0.00506 18.2-0.00768 27.3-0.0101 35.5-0.00175 71 0.0215 107 0.0261 39.9 0.0389 79.8 0.0318 120-7.16e-4 4.26-0.00139 8.52-0.00204 12.8-1.7e-4 1.05-3.4e-4 2.1-5.15e-4 3.18-0.0023 15.8 0.00566 31.6 0.0188 47.4 0.0149 18 0.0157 36-0.00207 54-0.00954 10.1-0.00817 20.1 0.00923 30.2 0.0105 6.73 0.00633 13.5-0.00948 20.2-0.00859 3.83-0.0112 7.65 0.00427 11.5 0.0629 16.7-0.652 32.6-4.52 49-0.275 1.17-0.549 2.34-0.832 3.55-0.616 2.49-1.3 4.94-2.04 7.39-0.255 0.861-0.51 1.72-0.772 2.61-7.87 26-21.3 47.4-39.4 67.5-0.675 0.749-1.35 1.5-2.05 2.27-20.9 21.9-49.5 36.4-78.6 43.5-0.81 0.199-1.62 0.398-2.45 0.603-12.5 2.89-25.1 3.96-37.9 4.26-1.43 0.038-2.86 0.076-4.29 0.114-16.9 0.423-33.9 0.41-50.8 0.397-4.86-0.00258-9.72 7.41e-4 -14.6 0.00324-8.48 0.00358-17 0.00352-25.5 9.53e-4 -12.6-0.00381-25.2-0.00183-37.9 0.00121-22.5 0.00525-45.1 0.00482-67.6 0.00192-19.7-0.00252-39.5-0.00317-59.2-0.00198-1.97 1.15e-4 -1.97 1.15e-4 -3.98 2.31e-4 -5.33 3.11e-4 -10.7 6.29e-4 -16 9.6e-4 -14.9 9.17e-4 -29.8 0.00149-44.7 0.00179-0.678 1.36e-5 -1.36 2.73e-5 -2.06 4.14e-5 -21.6 4.09e-4 -43.2-7.15e-4 -64.8-0.00289-0.699-7.02e-5 -1.4-1.4e-4 -2.12-2.13e-4 -11.4-0.00114-22.7-0.00236-34.1-0.00359-45-0.00485-90-0.00463-135 2.31e-4 -11.3 0.00122-22.7 0.00243-34 0.00357-0.698 7.04e-5 -1.4 1.41e-4 -2.12 2.13e-4 -21.6 0.00216-43.1 0.00307-64.7 0.00264-0.678-1.36e-5 -1.36-2.72e-5 -2.05-4.12e-5 -14.9-3.13e-4 -29.8-9.47e-4 -44.7-0.00187-5.99-3.7e-4 -12-7.18e-4 -18-0.00107-1.31-7.91e-5 -2.62-1.58e-4 -3.97-2.4e-4 -19.7-0.00113-39.4 1.85e-4 -59.1 0.00272-22.4 0.00287-44.9 0.00212-67.3-0.00328-12.5-0.00292-25.1-0.00316-37.6 6.46e-4 -8.4 0.00227-16.8 8.02e-4 -25.2-0.0035-4.76-0.00234-9.53-0.00327-14.3 4.06e-4 -19.5 0.0138-38.9-0.129-58.3-0.564-0.886-0.0186-1.77-0.0372-2.68-0.0564-45-0.97-84.6-15.4-117-46.5-0.86-0.795-1.72-1.59-2.61-2.41-28.8-27.5-47.2-68.6-48.5-109-0.038-3.35-0.0442-6.71-0.0392-10.1-0.00205-1.29-0.00411-2.57-0.00622-3.89-0.00554-3.56-0.0049-7.12-0.00322-10.7 7.34e-4 -3.87-0.0043-7.75-0.00858-11.6-0.00757-7.68-0.00977-15.4-0.0103-23-9.15e-4 -9.2-0.00759-18.4-0.0143-27.6-0.016-22.2-0.022-44.5-0.0267-66.7-0.00234-10.5-0.00594-21-0.0097-31.6-0.0128-36-0.0236-72.1-0.027-108-2.22e-4 -2.26-4.43e-4 -4.52-6.65e-4 -6.78-2.21e-4 -2.27-4.41e-4 -4.53-6.61e-4 -6.8-4.43e-4 -4.55-8.9e-4 -9.1-0.00134-13.6-1.09e-4 -1.13-2.19e-4 -2.26-3.31e-4 -3.42-0.00363-36.6-0.0195-73.1-0.0429-110-0.0246-38.7-0.0383-77.3-0.0395-116-1.71e-4 -4.25-3.87e-4 -8.49-6.34e-4 -12.7-5.58e-5 -1.05-1.12e-4 -2.09-1.69e-4 -3.17-0.00115-16.8-0.0122-33.6-0.0267-50.4-0.0144-16.9-0.0176-33.8-0.00956-50.7 0.00445-10 6.38e-4 -20.1-0.0152-30.1-0.00979-6.71-0.00853-13.4 0.00144-20.1 0.00536-3.82 0.00619-7.63-0.00651-11.5-0.0617-19.8 0.253-39.5 6.13-58.5 0.384-1.29 0.384-1.29 0.776-2.6 7.93-25.8 21.1-48.9 40.1-68.2 1.29-1.32 2.55-2.67 3.8-4.02 20.2-21.3 48.1-36 76.6-42.4 0.687-0.155 1.37-0.311 2.08-0.471 13.1-2.9 25.7-3.68 39-3.66zm-27.9 144c-6.42 7.9-7.66 16.2-7.58 26.1-0.00346 1.08-0.00692 2.17-0.0105 3.29-0.00794 3.63 0.00552 7.27 0.0189 10.9-0.00131 2.63-0.00381 5.26-0.00777 7.89-0.00621 5.72-0.00131 11.4 0.0109 17.2 0.0181 8.51 0.019 17 0.0164 25.5-0.00394 14.3 0.00607 28.6 0.0241 42.9 0.0178 14.2 0.0293 28.3 0.0326 42.5 2.06e-4 0.881 4.12e-4 1.76 6.25e-4 2.67 0.00102 4.47 0.00192 8.95 0.00278 13.4 0.0063 31.7 0.0265 63.4 0.0549 95.1 0.0276 30.8 0.0488 61.6 0.0615 92.4 3.95e-4 0.949 7.89e-4 1.9 0.0012 2.88 0.00396 9.53 0.00778 19.1 0.0115 28.6 0.00761 19.4 0.0161 38.8 0.0251 58.2 4.12e-4 0.893 8.24e-4 1.79 0.00125 2.71 0.0276 59.6 0.0751 119 0.126 179 5.45-4.61 5.45-4.61 10.6-9.51 0.631-0.63 1.26-1.26 1.91-1.91 0.669-0.673 1.34-1.35 2.03-2.04 1.09-1.09 1.09-1.09 2.21-2.21 2.43-2.43 4.85-4.87 7.28-7.3 1.75-1.75 3.49-3.5 5.24-5.25 3.76-3.76 7.51-7.53 11.3-11.3 5.44-5.45 10.9-10.9 16.3-16.4 8.84-8.86 17.7-17.7 26.5-26.6 0.528-0.53 1.06-1.06 1.6-1.6 7.49-7.51 15-15 22.5-22.5 0.527-0.529 1.05-1.06 1.6-1.6 0.527-0.528 1.05-1.06 1.6-1.6 8.8-8.83 17.6-17.6 26.4-26.5 5.42-5.43 10.8-10.9 16.3-16.3 4.16-4.17 8.32-8.34 12.5-12.5 1.7-1.7 3.4-3.41 5.09-5.11 25.8-25.9 53.3-46 91.4-46.2 1.97 0.00483 1.97 0.00483 3.97 0.00977 1.95-0.0242 1.95-0.0242 3.94-0.0488 34.1-0.017 61.7 16.4 85.3 39.9 2.86 2.86 5.72 5.73 8.57 8.61 2.33 2.35 4.67 4.7 7.01 7.05 6.64 6.67 13.3 13.3 19.9 20 4.07 4.1 8.15 8.19 12.2 12.3 1.55 1.56 3.1 3.12 4.65 4.68 2.15 2.17 4.31 4.34 6.47 6.5 0.641 0.65 1.28 1.3 1.94 1.97 2.8 3.27 2.8 3.27 6.64 4.41v2c3.14 3.46 3.14 3.46 7 6 4.24-4.06 7.93-8.45 11.6-13 1.25-1.52 2.49-3.05 3.74-4.57 0.614-0.751 1.23-1.5 1.86-2.27 2.5-3.04 5.04-6.04 7.59-9.03 3.27-3.84 6.5-7.71 9.69-11.6 5.54-6.8 11.2-13.5 16.9-20.2 5.49-6.46 10.9-12.9 16.3-19.5 2.57-3.13 5.19-6.22 7.81-9.31 4.91-5.78 9.72-11.6 14.5-17.5 5.24-6.45 10.5-12.8 15.9-19.2 2.9-3.42 5.76-6.86 8.59-10.3 3.19-3.91 6.42-7.78 9.69-11.6 4.32-5.08 8.58-10.2 12.8-15.4 4.68-5.7 9.39-11.4 14.2-17 2.81-3.31 5.59-6.66 8.33-10 3.25-3.99 6.55-7.95 9.88-11.9 0.461-0.545 0.923-1.09 1.4-1.65 2.32-2.74 4.65-5.47 6.98-8.2 5.26-6.16 10.4-12.4 15.3-18.8 3.18-4.07 6.5-7.94 9.97-11.8 2.96-3.33 5.74-6.8 8.55-10.3 2.49-3.05 5.03-6.06 7.59-9.05 4.32-5.08 8.58-10.2 12.8-15.4 5.16-6.28 10.3-12.5 15.6-18.7 1.39-1.64 2.77-3.29 4.11-4.98 17.2-21.2 45.5-33.6 72.1-36.6 33.1-2.87 64.3 6.7 89.7 28 15 13.1 15 13.1 18.4 19.8h2c0.274 0.592 0.548 1.18 0.83 1.79 1.13 2.13 2.3 3.7 3.89 5.49 0.534 0.608 1.07 1.22 1.62 1.84 0.568 0.639 1.14 1.28 1.72 1.94 3.98 4.52 7.9 9.06 11.7 13.8 3.53 4.36 7.23 8.51 11 12.7 3.12 3.51 6.05 7.16 9 10.8 2.19 2.64 4.44 5.19 6.75 7.72 3.92 4.3 7.59 8.76 11.2 13.3 2.19 2.64 4.44 5.19 6.75 7.72 3.92 4.3 7.59 8.76 11.2 13.3 2.19 2.64 4.44 5.19 6.75 7.72 3.02 3.32 5.93 6.7 8.75 10.2 5.74 7.09 11.8 13.9 17.8 20.8 6.74 7.73 13.4 15.5 19.9 23.5 2.85 3.44 5.86 6.72 8.86 10 2.31 2.6 4.5 5.26 6.68 7.96 3.08 3.8 6.25 7.46 9.56 11.1 4.11 4.47 7.97 9.09 11.8 13.8 2.17 2.63 4.42 5.16 6.71 7.68 3.1 3.4 6.05 6.86 8.94 10.4 3.94 4.87 8.08 9.5 12.3 14.1 1.82 2 3.55 4.03 5.23 6.15 0.66 0.763 1.32 1.53 2 2.31h2c0.0514-45.3 0.0991-90.7 0.127-136 4.14e-4 -0.671 8.28e-4 -1.34 0.00126-2.03 0.00898-14.6 0.0173-29.2 0.0249-43.8 0.00374-7.15 0.00763-14.3 0.0116-21.5 3.92e-4 -0.712 7.85e-4 -1.42 0.00119-2.16 0.0128-23.1 0.0353-46.1 0.0629-69.2 0.0283-23.7 0.0468-47.4 0.0529-71.1 0.00394-15.3 0.0165-30.5 0.042-45.8 0.0158-10 0.0207-20 0.0168-30-0.00192-5.78 0.00105-11.6 0.0171-17.3 0.0146-5.29 0.0153-10.6 0.00508-15.9-0.00127-1.91 0.00253-3.83 0.012-5.74 0.0678-14.6-0.647-25.5-11.3-36.4-7.62-7.16-15.9-9.18-26.2-9.18-0.705-0.00165-1.41-0.0033-2.14-5e-3 -2.37-0.00433-4.75-0.00152-7.12 0.00123-1.72-0.00165-3.44-0.00374-5.16-0.00622-4.76-0.00558-9.51-0.00489-14.3-0.00322-5.17 7.3e-4 -10.3-0.00429-15.5-0.00858-10.3-0.00759-20.5-0.00977-30.8-0.0103-12.3-9.13e-4 -24.6-0.00758-36.8-0.0143-29-0.0157-58-0.0217-86.9-0.0264-14.7-0.00238-29.5-0.00609-44.2-0.01-47.3-0.0127-94.6-0.0234-142-0.0268-2.26-1.62e-4 -4.52-3.28e-4 -6.78-4.94e-4 -4.53-3.34e-4 -9.06-6.64e-4 -13.6-9.95e-4 -5.31-3.87e-4 -10.6-7.77e-4 -15.9-0.00117-1.52-1.12e-4 -3.04-2.24e-4 -4.56-3.34e-4 -48.8-0.00355-97.6-0.0186-146-0.0419-35-0.0167-70.1-0.0322-105-0.0367-0.721-9.35e-5 -1.44-1.87e-4 -2.18-2.83e-4 -15.8-0.00202-31.6-0.00318-47.5-0.00353-5.66-1.36e-4 -11.3-3.45e-4 -17-5.93e-4 -1.41-6.16e-5 -2.82-1.2e-4 -4.23-1.75e-4 -22.4-9.2e-4 -44.9-0.0109-67.3-0.0255-23.2-0.015-46.5-0.0192-69.7-0.0109-13.4 0.00446-26.8 5.65e-4 -40.2-0.0152-8.95-0.00973-17.9-0.00859-26.8 0.00144-5.1 0.00541-10.2 0.00605-15.3-0.00651-4.64-0.0113-9.28-0.00883-13.9 0.00467-1.67 0.00243-3.34-1.49e-4 -5-0.0084-14.6-0.0673-26.1 1.18-36.4 12.3z" fill="#000002"/>
<path transform="translate(166,599)" d="m0 0h1c-0.00114 0.963-0.00228 1.93-0.00345 2.92-0.0674 57.2-0.119 114-0.15 171-0.00374 6.87-0.00763 13.7-0.0116 20.6-5.88e-4 1.03-5.88e-4 1.03-0.00119 2.07-0.0128 22.1-0.0353 44.2-0.0629 66.3-0.0292 23.4-0.0471 46.8-0.0534 70.2-0.0041 14-0.017 28-0.0415 42-0.0159 9.62-0.0206 19.2-0.0168 28.9 0.00191 5.54-8.61e-4 11.1-0.0171 16.6-0.127 45.7 3.78 88.5 22.4 131 0.348 0.797 0.696 1.59 1.05 2.42 10.3 23.4 24.4 45 41.9 63.6 1.17 1.35 2.34 2.7 3.5 4.06 25.7 29.5 61.1 50.6 97.5 63.9 0.732 0.277 1.46 0.554 2.22 0.839 26.9 10.1 56.1 13.3 84.7 13.3 1.69 0.00245 3.38 0.00534 5.06 0.00861 4.63 0.00773 9.25 0.00934 13.9 0.00993 5.04 0.00174 10.1 0.00922 15.1 0.016 8.83 0.011 17.7 0.0184 26.5 0.0234 13.1 0.00742 26.2 0.0205 39.4 0.0347 22.1 0.0238 44.2 0.043 66.2 0.0596 21.9 0.0164 43.7 0.0349 65.6 0.0561 0.679 6.58e-4 1.36 0.00132 2.06 2e-3 6.2 0.00601 12.4 0.0121 18.6 0.0181 15.4 0.0151 30.8 0.0299 46.3 0.0444 0.702 6.63e-4 1.4 0.00133 2.13 0.00201 34.1 0.0322 68.3 0.0608 102 0.0891 11.8 0.00981 23.7 0.0196 35.5 0.0295 1.1 9.21e-4 1.1 9.21e-4 2.23 0.00186 34.2 0.0286 68.3 0.0597 102 0.0915 2.22 0.00207 4.44 0.00413 6.66 0.0062 14.7 0.0137 29.4 0.0274 44.1 0.0412 29.3 0.0274 58.5 0.0545 87.8 0.0814 1.39 0.00128 2.79 0.00257 4.18 0.00385 86.7 0.0799 173 0.154 278 0.242-0.473 1.75-0.947 3.5-1.42 5.24-0.396 1.46-0.396 1.46-0.8 2.95-1.01 3.64-2.12 7.23-3.27 10.8-0.229 0.722-0.459 1.44-0.695 2.19-0.491 1.55-0.984 3.09-1.48 4.64-4.31 13.5-8.55 27.1-12.7 40.6-4.06 13.3-8.2 26.5-12.5 39.7-3.93 12.1-7.75 24.2-11.6 36.4-0.753 2.39-1.51 4.78-2.26 7.17-5.14 16.3-5.14 16.3-10.2 32.7-10.2 33.7-24.8 62.6-53.2 84.6-0.704 0.593-1.41 1.19-2.13 1.8-6.99 5.79-14.9 9.99-22.9 14.2l-3.52 1.88c-11.3 5.66-23.3 8.93-35.5 12.1l-2.17 0.595c-19.1 5.11-39.4 3.76-58.4-0.994-1.47-0.358-2.94-0.716-4.41-1.07-16.9-4.14-33.7-8.64-50.6-13.2-4.37-1.17-8.74-2.34-13.1-3.51-7.6-2.03-15.2-4.07-22.8-6.1-6.42-1.72-12.8-3.44-19.3-5.15-13-3.48-26-6.98-39-10.5-0.933-0.255-1.87-0.51-2.83-0.773-4.4-1.2-8.8-2.41-13.2-3.62-12.3-3.38-24.7-6.62-37-9.85-20.4-5.33-40.8-10.8-61.2-16.2-2.77-0.741-5.53-1.48-8.3-2.22-38.3-10.2-76.5-20.5-115-30.9-4.08-1.11-8.17-2.22-12.3-3.33-0.978-0.265-1.96-0.531-2.96-0.805-14.3-3.89-28.7-7.68-43.1-11.4-16.7-4.34-33.3-8.89-49.9-13.5-13.9-3.86-27.9-7.55-41.9-11.2-21.9-5.73-43.8-11.6-65.7-17.4-3.31-0.886-6.62-1.77-9.94-2.66-27.6-7.37-55.1-14.8-82.7-22.2-19.6-5.29-39.2-10.5-58.8-15.7-22.8-6.04-45.6-12.2-68.3-18.3-29.6-8.02-59.2-15.9-88.8-23.8-23.4-6.22-46.7-12.5-70-18.8-9.02-2.46-18-4.86-27.1-7.2-0.96-0.248-1.92-0.497-2.91-0.752-4.51-1.17-9.01-2.32-13.5-3.47-13.4-3.43-27-7.2-39.3-13.7-0.654-0.339-1.31-0.677-1.98-1.03-1.91-0.998-3.81-2.01-5.71-3.04-1.05-0.554-2.1-1.11-3.18-1.68-8.29-4.59-15.5-10.3-22.8-16.3-0.537-0.434-1.07-0.867-1.63-1.31-2.85-2.33-5.44-4.68-7.81-7.5-2.63-3.09-2.63-3.09-5.32-6.13-4.56-5.05-8.49-10.4-12.2-16.1-0.639-0.944-1.28-1.89-1.94-2.86-8.3-12.8-14.4-27.4-18.1-42.1-0.319-1.25-0.319-1.25-0.645-2.53-10.3-41.5 1.2-76.9 13.3-116 2.71-8.86 5.39-17.7 8.05-26.6 0.303-1.01 0.303-1.01 0.612-2.04 1.05-3.5 2.1-7 3.15-10.5 1.98-6.63 3.97-13.3 5.96-19.9 0.7-2.33 1.4-4.67 2.1-7 3.19-10.6 6.38-21.3 9.57-31.9 15.1-50.2 15.1-50.2 30.1-100 5.34-18 10.7-35.9 16.1-53.8 0.224-0.748 0.449-1.5 0.68-2.27 3.77-12.6 7.55-25.1 11.3-37.7 2.73-9.09 5.46-18.2 8.19-27.3 0.371-1.24 0.742-2.47 1.12-3.75 4.89-16.3 9.77-32.6 14.6-48.9 6.92-23.3 13.9-46.5 20.9-69.8 0.941-3.13 1.88-6.26 2.82-9.39 1.52-5.05 3.04-10.1 4.56-15.2 0.567-1.88 1.13-3.76 1.7-5.65 0.777-2.59 1.56-5.17 2.34-7.75 0.34-1.13 0.34-1.13 0.686-2.29 1.12-3.69 2.32-7.29 3.83-10.8z" fill="#000002"/>
<path transform="translate(681,361)" d="m0 0c0.773 0.615 0.773 0.615 1.56 1.24 28.4 22.8 45.6 54.6 50.1 90.6 2.62 33.8-5.71 67.2-26.7 94.2-0.753 0.973-1.51 1.95-2.28 2.95-21.9 27.5-52 43-86.5 48.7-33.8 3.74-68.9-3.62-96.1-24.6-2.04-1.66-4.06-3.35-6.06-5.06-0.506-0.429-1.01-0.858-1.53-1.3-22.2-18.9-36.7-43.4-43.5-71.7-0.167-0.68-0.333-1.36-0.505-2.06-7.68-32.4-0.958-67.4 15.9-95.8 19.8-32 50.4-53.2 86.6-62.1 37.1-8.73 79.4 1.21 109 25z" fill="#000002"/>
</svg>
